<svg width="50" height="50" viewBox="0 0 50 50" fill="none" xmlns="http://www.w3.org/2000/svg">
<path d="M16.393 32.208L14.5833 45.8332L24.1425 40.0977C24.4543 39.9106 24.6102 39.8171 24.7766 39.7805C24.9238 39.7482 25.0762 39.7482 25.2234 39.7805C25.3898 39.8171 25.5457 39.9106 25.8575 40.0977L35.4167 45.8332L33.6082 32.2021M34.2206 8.85167C34.5423 9.62984 35.1599 10.2484 35.9376 10.5713L38.6644 11.7008C39.4426 12.0232 40.0609 12.6415 40.3832 13.4197C40.7056 14.1979 40.7056 15.0724 40.3832 15.8506L39.2546 18.5756C38.9321 19.3541 38.9316 20.2294 39.2556 21.0076L40.3823 23.7318C40.5421 24.1173 40.6244 24.5304 40.6245 24.9477C40.6245 25.3649 40.5424 25.7781 40.3827 26.1636C40.223 26.5491 39.989 26.8994 39.6939 27.1944C39.3988 27.4894 39.0485 27.7233 38.6629 27.8829L35.9381 29.0116C35.1599 29.3334 34.5414 29.951 34.2185 30.7287L33.089 33.4556C32.7666 34.2338 32.1484 34.8521 31.3702 35.1745C30.592 35.4968 29.7176 35.4968 28.9394 35.1745L26.2145 34.0457C25.4363 33.7242 24.5622 33.7248 23.7845 34.0476L21.0576 35.1755C20.2799 35.4971 19.4063 35.4968 18.6287 35.1747C17.8511 34.8526 17.2332 34.2351 16.9106 33.4577L15.7808 30.7299C15.4591 29.9518 14.8415 29.3332 14.0638 29.0103L11.337 27.8808C10.5591 27.5585 9.94103 26.9406 9.61857 26.1629C9.29611 25.3851 9.29567 24.5111 9.61735 23.733L10.746 21.008C11.0676 20.2297 11.0669 19.3556 10.7442 18.5779L9.61714 15.849C9.45735 15.4635 9.37507 15.0504 9.375 14.6331C9.37493 14.2159 9.45708 13.8027 9.61675 13.4172C9.77643 13.0317 10.0105 12.6814 10.3056 12.3864C10.6007 12.0914 10.951 11.8575 11.3365 11.6979L14.0614 10.5692C14.8389 10.2477 15.457 9.63088 15.7802 8.85409L16.9097 6.12714C17.232 5.34892 17.8503 4.73062 18.6285 4.40827C19.4067 4.08592 20.281 4.08592 21.0592 4.40827L23.7841 5.537C24.5624 5.85855 25.4364 5.8579 26.2141 5.53517L28.9421 4.41002C29.7202 4.08785 30.5944 4.08791 31.3725 4.4102C32.1505 4.73249 32.7687 5.35061 33.0911 6.12863L34.2209 8.85639L34.2206 8.85167Z" stroke="white" stroke-width="2" stroke-linecap="round" stroke-linejoin="round"/>
</svg>
