<svg width="50" height="50" viewBox="0 0 50 50" fill="none" xmlns="http://www.w3.org/2000/svg">
<path d="M16.6667 29.1665C16.6667 29.1665 19.7917 33.3332 25 33.3332C30.2083 33.3332 33.3333 29.1665 33.3333 29.1665M35.4167 19.2498C34.5937 20.2602 33.4687 20.8332 32.2917 20.8332C31.1146 20.8332 30.0208 20.2602 29.1667 19.2498M20.8333 19.2498C20.0104 20.2602 18.8854 20.8332 17.7083 20.8332C16.5312 20.8332 15.4375 20.2602 14.5833 19.2498M45.8333 24.9998C45.8333 36.5058 36.5059 45.8332 25 45.8332C13.4941 45.8332 4.16666 36.5058 4.16666 24.9998C4.16666 13.4939 13.4941 4.1665 25 4.1665C36.5059 4.1665 45.8333 13.4939 45.8333 24.9998Z" stroke="white" stroke-width="2" stroke-linecap="round" stroke-linejoin="round"/>
</svg>
