<svg width="264" height="60" viewBox="0 0 264 60" fill="none" xmlns="http://www.w3.org/2000/svg">
<circle cx="30" cy="30" r="28" stroke="#89A155" stroke-width="4"/>
<path d="M42.956 18.708L32.732 34.656V42H27.908V34.656L17.684 18.708H23.228L31.832 32.64H28.952L37.412 18.708H42.956Z" fill="#89A155"/>
<path d="M79.72 17.708H104.272V21.704H79.72V17.708ZM89.62 21.2H94.408V41H89.62V21.2ZM107.752 41V17.708H123.556C125.356 17.708 126.916 17.96 128.236 18.464C129.58 18.944 130.624 19.712 131.368 20.768C132.112 21.8 132.484 23.132 132.484 24.764C132.484 25.868 132.292 26.804 131.908 27.572C131.524 28.34 130.984 28.964 130.288 29.444C129.616 29.924 128.836 30.296 127.948 30.56C127.06 30.8 126.112 30.956 125.104 31.028L124.6 30.74C126.28 30.764 127.66 30.908 128.74 31.172C129.82 31.412 130.624 31.868 131.152 32.54C131.704 33.188 131.98 34.16 131.98 35.456V41H127.192V35.78C127.192 34.892 127.036 34.208 126.724 33.728C126.412 33.224 125.848 32.876 125.032 32.684C124.24 32.492 123.088 32.396 121.576 32.396H112.54V41H107.752ZM112.54 28.652H123.556C124.9 28.652 125.92 28.328 126.616 27.68C127.336 27.032 127.696 26.156 127.696 25.052C127.696 23.996 127.336 23.192 126.616 22.64C125.92 22.088 124.9 21.812 123.556 21.812H112.54V28.652ZM147.325 41.432C145.069 41.432 143.077 41.072 141.349 40.352C139.645 39.632 138.313 38.588 137.353 37.22C136.393 35.828 135.913 34.124 135.913 32.108C135.913 30.092 136.393 28.388 137.353 26.996C138.313 25.58 139.645 24.512 141.349 23.792C143.077 23.072 145.069 22.712 147.325 22.712C149.581 22.712 151.549 23.072 153.229 23.792C154.933 24.512 156.265 25.58 157.225 26.996C158.185 28.388 158.665 30.092 158.665 32.108C158.665 34.124 158.185 35.828 157.225 37.22C156.265 38.588 154.933 39.632 153.229 40.352C151.549 41.072 149.581 41.432 147.325 41.432ZM147.325 37.832C148.573 37.832 149.689 37.616 150.673 37.184C151.681 36.728 152.473 36.08 153.049 35.24C153.625 34.376 153.913 33.332 153.913 32.108C153.913 30.884 153.625 29.84 153.049 28.976C152.473 28.088 151.693 27.416 150.709 26.96C149.725 26.504 148.597 26.276 147.325 26.276C146.077 26.276 144.949 26.504 143.941 26.96C142.933 27.416 142.129 28.076 141.529 28.94C140.953 29.804 140.665 30.86 140.665 32.108C140.665 33.332 140.953 34.376 141.529 35.24C142.105 36.08 142.897 36.728 143.905 37.184C144.913 37.616 146.053 37.832 147.325 37.832ZM172.673 41.432C170.417 41.432 168.425 41.072 166.697 40.352C164.993 39.632 163.661 38.588 162.701 37.22C161.741 35.828 161.261 34.124 161.261 32.108C161.261 30.092 161.741 28.388 162.701 26.996C163.661 25.58 164.993 24.512 166.697 23.792C168.425 23.072 170.417 22.712 172.673 22.712C174.929 22.712 176.897 23.072 178.577 23.792C180.281 24.512 181.613 25.58 182.573 26.996C183.533 28.388 184.013 30.092 184.013 32.108C184.013 34.124 183.533 35.828 182.573 37.22C181.613 38.588 180.281 39.632 178.577 40.352C176.897 41.072 174.929 41.432 172.673 41.432ZM172.673 37.832C173.921 37.832 175.037 37.616 176.021 37.184C177.029 36.728 177.821 36.08 178.397 35.24C178.973 34.376 179.261 33.332 179.261 32.108C179.261 30.884 178.973 29.84 178.397 28.976C177.821 28.088 177.041 27.416 176.057 26.96C175.073 26.504 173.945 26.276 172.673 26.276C171.425 26.276 170.297 26.504 169.289 26.96C168.281 27.416 167.477 28.076 166.877 28.94C166.301 29.804 166.013 30.86 166.013 32.108C166.013 33.332 166.301 34.376 166.877 35.24C167.453 36.08 168.245 36.728 169.253 37.184C170.261 37.616 171.401 37.832 172.673 37.832ZM205.652 17.6L197.373 32.972V41H194.493V32.972L186.213 17.6H189.453L196.581 31.1H195.429L202.413 17.6H205.652ZM213.465 41.36C211.929 41.36 210.489 40.988 209.145 40.244C207.801 39.5 206.709 38.432 205.869 37.04C205.053 35.624 204.645 33.956 204.645 32.036C204.645 30.116 205.053 28.46 205.869 27.068C206.709 25.652 207.801 24.56 209.145 23.792C210.489 23.024 211.929 22.64 213.465 22.64C215.001 22.64 216.429 23.024 217.749 23.792C219.093 24.56 220.173 25.652 220.989 27.068C221.805 28.46 222.213 30.116 222.213 32.036C222.213 33.956 221.805 35.624 220.989 37.04C220.173 38.432 219.093 39.5 217.749 40.244C216.429 40.988 215.001 41.36 213.465 41.36ZM213.465 38.66C214.473 38.66 215.421 38.408 216.309 37.904C217.197 37.4 217.917 36.656 218.469 35.672C219.045 34.664 219.333 33.452 219.333 32.036C219.333 30.62 219.045 29.42 218.469 28.436C217.917 27.428 217.197 26.66 216.309 26.132C215.421 25.604 214.473 25.34 213.465 25.34C212.457 25.34 211.497 25.604 210.585 26.132C209.697 26.636 208.965 27.392 208.389 28.4C207.813 29.384 207.525 30.596 207.525 32.036C207.525 33.452 207.801 34.664 208.353 35.672C208.929 36.656 209.673 37.4 210.585 37.904C211.497 38.408 212.457 38.66 213.465 38.66ZM232.311 38.156C231.039 38.156 229.827 37.856 228.675 37.256C227.547 36.632 226.623 35.744 225.903 34.592C225.207 33.44 224.859 32.06 224.859 30.452C224.859 28.844 225.207 27.464 225.903 26.312C226.599 25.136 227.511 24.236 228.639 23.612C229.767 22.964 230.991 22.64 232.311 22.64C232.719 22.64 233.103 22.676 233.463 22.748C233.847 22.796 234.207 22.88 234.543 23H241.851V26.096C240.819 26.096 239.787 25.904 238.755 25.52C237.747 25.136 236.883 24.74 236.163 24.332L236.019 24.188C236.859 24.644 237.543 25.184 238.071 25.808C238.623 26.432 239.031 27.14 239.295 27.932C239.583 28.7 239.727 29.54 239.727 30.452C239.727 32.06 239.379 33.44 238.683 34.592C238.011 35.744 237.111 36.632 235.983 37.256C234.855 37.856 233.631 38.156 232.311 38.156ZM237.603 48.2V47.408C237.603 46.136 237.267 45.212 236.595 44.636C235.947 44.06 234.963 43.772 233.643 43.772H230.043C229.251 43.772 228.555 43.7 227.955 43.556C227.379 43.436 226.899 43.244 226.515 42.98C226.131 42.716 225.843 42.392 225.651 42.008C225.459 41.624 225.363 41.192 225.363 40.712C225.363 39.8 225.639 39.116 226.191 38.66C226.743 38.18 227.427 37.88 228.243 37.76C229.059 37.64 229.839 37.64 230.583 37.76L232.311 38.156C231.015 38.228 230.007 38.36 229.287 38.552C228.591 38.744 228.243 39.152 228.243 39.776C228.243 40.136 228.375 40.436 228.639 40.676C228.927 40.892 229.347 41 229.899 41H233.643C234.891 41 236.031 41.168 237.063 41.504C238.095 41.864 238.923 42.452 239.547 43.268C240.171 44.108 240.483 45.248 240.483 46.688V48.2H237.603ZM232.311 35.456C233.103 35.456 233.835 35.264 234.507 34.88C235.203 34.496 235.767 33.932 236.199 33.188C236.631 32.444 236.847 31.532 236.847 30.452C236.847 29.372 236.631 28.46 236.199 27.716C235.791 26.948 235.239 26.372 234.543 25.988C233.847 25.58 233.103 25.376 232.311 25.376C231.519 25.376 230.775 25.58 230.079 25.988C229.383 26.372 228.819 26.936 228.387 27.68C227.955 28.424 227.739 29.348 227.739 30.452C227.739 31.532 227.955 32.444 228.387 33.188C228.819 33.932 229.383 34.496 230.079 34.88C230.775 35.264 231.519 35.456 232.311 35.456ZM252.042 41.36C250.626 41.36 249.318 40.964 248.118 40.172C246.942 39.356 245.994 38.252 245.274 36.86C244.578 35.444 244.23 33.836 244.23 32.036C244.23 30.236 244.59 28.628 245.31 27.212C246.03 25.796 247.002 24.68 248.226 23.864C249.474 23.048 250.866 22.64 252.402 22.64C254.082 22.64 255.354 23.072 256.218 23.936C257.106 24.776 257.706 25.904 258.018 27.32C258.354 28.736 258.522 30.308 258.522 32.036C258.522 32.948 258.426 33.944 258.234 35.024C258.042 36.08 257.706 37.1 257.226 38.084C256.77 39.044 256.122 39.836 255.282 40.46C254.442 41.06 253.362 41.36 252.042 41.36ZM252.762 38.624C253.986 38.624 254.994 38.324 255.786 37.724C256.602 37.124 257.202 36.332 257.586 35.348C257.97 34.34 258.162 33.236 258.162 32.036C258.162 30.716 257.958 29.564 257.55 28.58C257.166 27.572 256.566 26.792 255.75 26.24C254.958 25.664 253.962 25.376 252.762 25.376C250.962 25.376 249.57 26.012 248.586 27.284C247.602 28.532 247.11 30.116 247.11 32.036C247.11 33.308 247.35 34.448 247.83 35.456C248.334 36.44 249.006 37.22 249.846 37.796C250.71 38.348 251.682 38.624 252.762 38.624ZM258.162 23H261.042V41H258.414C258.414 41 258.39 40.784 258.342 40.352C258.318 39.92 258.282 39.416 258.234 38.84C258.186 38.264 258.162 37.784 258.162 37.4V23Z" fill="white"/>
</svg>
