<svg width="50" height="50" viewBox="0 0 50 50" fill="none" xmlns="http://www.w3.org/2000/svg">
<path d="M11.0756 40.4965C12.343 37.5107 15.3019 35.4165 18.75 35.4165H31.25C34.6981 35.4165 37.657 37.5107 38.9244 40.4965M33.3334 19.7915C33.3334 24.3939 29.6024 28.1248 25 28.1248C20.3976 28.1248 16.6667 24.3939 16.6667 19.7915C16.6667 15.1891 20.3976 11.4582 25 11.4582C29.6024 11.4582 33.3334 15.1891 33.3334 19.7915ZM45.8334 24.9998C45.8334 36.5058 36.506 45.8332 25 45.8332C13.4941 45.8332 4.16669 36.5058 4.16669 24.9998C4.16669 13.4939 13.4941 4.1665 25 4.1665C36.506 4.1665 45.8334 13.4939 45.8334 24.9998Z" stroke="white" stroke-width="2" stroke-linecap="round" stroke-linejoin="round"/>
</svg>
